<svg width="30" height="32" viewBox="0 0 30 32" fill="none" xmlns="http://www.w3.org/2000/svg">
<path d="M15.8686 20.2015C16.4222 20.1584 16.9268 19.8761 17.2544 19.4257L22.2334 12.5424C22.386 12.3313 22.3632 12.0399 22.1781 11.8548C21.9931 11.6703 21.7016 11.6474 21.4905 11.7995L14.6062 16.7801C14.1574 17.1066 13.875 17.6113 13.8319 18.1648C13.7888 18.7184 13.9893 19.2603 14.3812 19.6522C14.7381 20.0096 15.2193 20.2074 15.7197 20.2074C15.7692 20.2074 15.8186 20.2052 15.8686 20.2015ZM14.8923 18.2478C14.9109 18.0048 15.0353 17.783 15.231 17.6405L19.4304 14.6025L16.3935 18.8008C16.2499 18.9981 16.0281 19.122 15.7851 19.1412C15.5432 19.1571 15.3055 19.0731 15.1326 18.9003C14.9614 18.7285 14.8731 18.4903 14.8923 18.2478Z" fill="#FFBB01"/>
<path d="M27.7805 10.4036C27.7752 10.3925 27.7752 10.3808 27.7693 10.3696C27.7629 10.359 27.7528 10.3531 27.7459 10.343C27.2083 9.42091 26.5723 8.56315 25.8501 7.7857L26.9924 6.64398L27.7443 7.39591L30.0001 5.13959L27.7443 2.88381L25.488 5.13959L26.2405 5.89205L25.0982 7.03377C24.3208 6.31162 23.4635 5.67509 22.5409 5.13747C22.5308 5.13055 22.5249 5.12045 22.5143 5.11407C22.5031 5.10769 22.4914 5.10822 22.4803 5.10237C20.8355 4.15475 18.9876 3.52353 17.0174 3.29221V2.65887H17.815C18.5483 2.65887 19.1445 2.06275 19.1445 1.32943C19.1445 0.596119 18.5478 0 17.8145 0H13.0285C12.2952 0 11.6991 0.596119 11.6991 1.32943C11.6991 2.06275 12.2952 2.65887 13.0285 2.65887H13.8262V3.2736C13.2519 3.33475 12.6786 3.42835 12.1118 3.5581C11.8257 3.62351 11.6465 3.90907 11.7124 4.19516C11.7778 4.48126 12.0634 4.661 12.3495 4.59453C12.8387 4.48232 13.3327 4.39777 13.8278 4.34087L14.3984 4.29673C14.5728 4.28344 14.7334 4.27387 14.8897 4.26642V5.31774C14.8897 5.61181 15.1274 5.84951 15.4215 5.84951C15.7156 5.84951 15.9533 5.61181 15.9533 5.31774V4.27014C17.9533 4.36214 19.8379 4.89923 21.5135 5.78304L20.9892 6.69078C20.8424 6.9455 20.9296 7.27041 21.1838 7.41718C21.2673 7.46557 21.3588 7.48844 21.4492 7.48844C21.6332 7.48844 21.8118 7.39325 21.9102 7.22255L22.433 6.31694C24.0969 7.37251 25.5103 8.78597 26.5659 10.4499L25.6603 10.9726C25.4066 11.1194 25.3194 11.4443 25.4667 11.699C25.5656 11.8697 25.7438 11.9649 25.9278 11.9649C26.0182 11.9649 26.1096 11.942 26.1931 11.8937L27.1009 11.3693C27.9969 13.0689 28.5356 14.9843 28.6159 17.0162H27.5656C27.2716 17.0162 27.0339 17.2539 27.0339 17.548C27.0339 17.8421 27.2716 18.0798 27.5656 18.0798H28.6159C28.5356 20.1117 27.9969 22.0271 27.1009 23.7267L26.1931 23.2024C25.9389 23.0556 25.6135 23.1417 25.4667 23.397C25.32 23.6517 25.4072 23.9766 25.6614 24.1234L26.567 24.6461C25.5114 26.31 24.0979 27.7235 22.434 28.7791L21.9113 27.8735C21.764 27.6182 21.438 27.5315 21.1849 27.6788C20.9302 27.8256 20.8429 28.151 20.9902 28.4052L21.5146 29.313C19.839 30.1968 17.9544 30.7339 15.9543 30.8259V29.7793C15.9543 29.4853 15.7166 29.2476 15.4226 29.2476C15.1285 29.2476 14.8908 29.4853 14.8908 29.7793V30.8301C14.0416 30.8009 13.1897 30.6945 12.351 30.502C12.065 30.4334 11.7794 30.6153 11.714 30.9014C11.648 31.1875 11.8273 31.473 12.1133 31.5384C13.1748 31.7831 14.2591 31.9064 15.3348 31.9064C15.3609 31.9064 15.3859 31.9048 15.4119 31.9043C15.4157 31.9043 15.4183 31.9064 15.4215 31.9064C15.4258 31.9064 15.4295 31.9038 15.4337 31.9038C17.99 31.8862 20.3883 31.196 22.4633 30.0037C22.4797 29.9963 22.4973 29.9926 22.5133 29.983C22.5239 29.9766 22.5297 29.9665 22.5398 29.9596C24.6877 28.7078 26.4824 26.9152 27.7369 24.769C27.747 24.7546 27.7597 24.7434 27.7688 24.7275C27.7752 24.7163 27.7746 24.7046 27.7799 24.6935C28.9945 22.5876 29.6927 20.1489 29.6927 17.5485C29.6927 14.9482 28.9945 12.5094 27.7805 10.4036ZM27.7438 4.38767L28.4957 5.13959L27.7438 5.89205L26.9913 5.13959L27.7438 4.38767ZM14.8897 3.20181V1.59532H13.0285C12.8823 1.59532 12.7626 1.47567 12.7626 1.32943C12.7626 1.1832 12.8823 1.06355 13.0285 1.06355H17.8145C17.9607 1.06355 18.0804 1.1832 18.0804 1.32943C18.0804 1.47567 17.9607 1.59532 17.8145 1.59532H15.9533V3.20181C15.7682 3.19437 15.5917 3.19064 15.4215 3.19064C15.4066 3.19064 15.3896 3.19171 15.3747 3.19171C15.3614 3.19171 15.3481 3.19064 15.3348 3.19064C15.2476 3.19064 15.1604 3.19649 15.0732 3.19809C15.0115 3.19968 14.9536 3.19915 14.8897 3.20181Z" fill="#FFBB01"/>
<path d="M10.6356 7.44495H7.97672C7.68265 7.44495 7.44495 7.68265 7.44495 7.97672C7.44495 8.27079 7.68265 8.50849 7.97672 8.50849H10.6356C10.9297 8.50849 11.1674 8.27079 11.1674 7.97672C11.1674 7.68265 10.9297 7.44495 10.6356 7.44495Z" fill="#FFBB01"/>
<path d="M10.6354 11.1672H5.31766C5.02359 11.1672 4.78589 11.4049 4.78589 11.699C4.78589 11.9931 5.02359 12.2308 5.31766 12.2308H10.6354C10.9295 12.2308 11.1672 11.9931 11.1672 11.699C11.1672 11.4049 10.9295 11.1672 10.6354 11.1672Z" fill="#FFBB01"/>
<path d="M10.6355 14.8895H2.65885C2.36478 14.8895 2.12708 15.1272 2.12708 15.4213C2.12708 15.7154 2.36478 15.9531 2.65885 15.9531H10.6355C10.9295 15.9531 11.1672 15.7154 11.1672 15.4213C11.1672 15.1272 10.9295 14.8895 10.6355 14.8895Z" fill="#FFBB01"/>
<path d="M10.6355 18.6122H0.531774C0.237703 18.6122 0 18.8499 0 19.144C0 19.438 0.237703 19.6757 0.531774 19.6757H10.6355C10.9295 19.6757 11.1673 19.438 11.1673 19.144C11.1673 18.8499 10.9295 18.6122 10.6355 18.6122Z" fill="#FFBB01"/>
<path d="M10.6354 22.3345H3.72233C3.42825 22.3345 3.19055 22.5722 3.19055 22.8662C3.19055 23.1603 3.42825 23.398 3.72233 23.398H10.6354C10.9295 23.398 11.1672 23.1603 11.1672 22.8662C11.1672 22.5722 10.9295 22.3345 10.6354 22.3345Z" fill="#FFBB01"/>
<path d="M10.6355 26.0569H6.91312C6.61905 26.0569 6.38135 26.2946 6.38135 26.5887C6.38135 26.8827 6.61905 27.1204 6.91312 27.1204H10.6355C10.9296 27.1204 11.1673 26.8827 11.1673 26.5887C11.1673 26.2946 10.9296 26.0569 10.6355 26.0569Z" fill="#FFBB01"/>
</svg>
